<svg width="180" height="38" viewBox="0 0 180 38" fill="none" xmlns="http://www.w3.org/2000/svg">
  <path d="M11.1641 27V9.84H24.5721V12.752H14.6521V17.328H23.8681V20.24H14.6521V27H11.1641Z" fill="#3B82F6"/>
  <path d="M34.5922 27.224C32.7202 27.224 31.0395 26.8293 29.5502 26.04C28.0715 25.24 26.9115 24.0907 26.0702 22.592C25.2395 21.0933 24.8242 19.3387 24.8242 17.328C24.8242 15.3173 25.2395 13.5733 26.0702 12.096C26.9115 10.608 28.0715 9.46933 29.5502 8.68C31.0395 7.89066 32.7202 7.496 34.5922 7.496C36.4642 7.496 38.1395 7.89066 39.6182 8.68C41.0969 9.46933 42.2515 10.608 43.0822 12.096C43.9235 13.5733 44.3442 15.3173 44.3442 17.328C44.3442 19.3387 43.9235 21.0933 43.0822 22.592C42.2515 24.0907 41.0969 25.24 39.6182 26.04C38.1395 26.8293 36.4642 27.224 34.5922 27.224ZM34.5922 24.088C35.7842 24.088 36.8122 23.832 37.6762 23.32C38.5402 22.808 39.1975 22.0587 39.6462 21.072C40.1055 20.0853 40.3352 18.8613 40.3352 17.328C40.3352 15.7947 40.1055 14.5707 39.6462 13.584C39.1975 12.5973 38.5402 11.848 37.6762 11.336C36.8122 10.824 35.7842 10.568 34.5922 10.568C33.4002 10.568 32.3669 10.824 31.4922 11.336C30.6282 11.848 29.9709 12.5973 29.5222 13.584C29.0735 14.5707 28.8492 15.7947 28.8492 17.328C28.8492 18.8613 29.0735 20.0853 29.5222 21.072C29.9709 22.0587 30.6282 22.808 31.4922 23.32C32.3669 23.832 33.4002 24.088 34.5922 24.088Z" fill="#5E62F6"/>
  <path d="M61.1025 27.224C59.1559 27.224 57.8532 26.8027 57.1945 25.96C56.5359 25.1173 56.2065 23.9467 56.2065 22.448V10.848H50.8465V7.936H56.2065V3.64H59.6945V7.936H66.3785V10.848H59.6945V21.992C59.6945 22.7387 59.8279 23.264 60.0945 23.568C60.3612 23.8613 60.8319 24.008 61.5065 24.008C61.8212 24.008 62.1359 23.9733 62.4505 23.904C62.7759 23.8347 63.1119 23.7387 63.4585 23.616V26.808C63.0265 26.9627 62.5025 27.0853 61.8865 27.176C61.2812 27.2773 61.1345 27.224 61.1025 27.224Z" fill="#8154F6"/>
  <path d="M75.5606 27.224C73.6886 27.224 72.0079 26.8293 70.5186 26.04C69.0399 25.24 67.8799 24.0907 67.0386 22.592C66.2079 21.0933 65.7926 19.3387 65.7926 17.328C65.7926 15.3173 66.2079 13.5733 67.0386 12.096C67.8799 10.608 69.0399 9.46933 70.5186 8.68C72.0079 7.89066 73.6886 7.496 75.5606 7.496C77.4326 7.496 79.1079 7.89066 80.5866 8.68C82.0653 9.46933 83.2199 10.608 84.0506 12.096C84.8919 13.5733 85.3126 15.3173 85.3126 17.328C85.3126 19.3387 84.8919 21.0933 84.0506 22.592C83.2199 24.0907 82.0653 25.24 80.5866 26.04C79.1079 26.8293 77.4326 27.224 75.5606 27.224ZM75.5606 24.088C76.7526 24.088 77.7806 23.832 78.6446 23.32C79.5086 22.808 80.1659 22.0587 80.6146 21.072C81.0739 20.0853 81.3036 18.8613 81.3036 17.328C81.3036 15.7947 81.0739 14.5707 80.6146 13.584C80.1659 12.5973 79.5086 11.848 78.6446 11.336C77.7806 10.824 76.7526 10.568 75.5606 10.568C74.3686 10.568 73.3352 10.824 72.4606 11.336C71.5966 11.848 70.9392 12.5973 70.4906 13.584C70.0419 14.5707 69.8176 15.7947 69.8176 17.328C69.8176 18.8613 70.0419 20.0853 70.4906 21.072C70.9392 22.0587 71.5966 22.808 72.4606 23.32C73.3352 23.832 74.3686 24.088 75.5606 24.088Z" fill="#9547F6"/>
  <path d="M92.3248 27V7.72H95.6168V11.856C96.2381 10.4587 97.1808 9.432 98.4448 8.776C99.7195 8.10933 101.242 7.776 103.014 7.776V11.52H102.166C100.956 11.52 99.8741 11.744 98.9248 12.192C97.9755 12.64 97.2235 13.3547 96.6688 14.336C96.1141 15.3173 95.8368 16.616 95.8368 18.232V27H92.3248Z" fill="#A93AF6"/>
  <path d="M112.447 27.224C110.575 27.224 108.894 26.8347 107.407 26.056C105.919 25.272 104.743 24.1227 103.879 22.608C103.025 21.0933 102.599 19.3387 102.599 17.344C102.599 15.3707 103.025 13.6267 103.879 12.112C104.734 10.5973 105.874 9.44267 107.299 8.648C108.725 7.85333 110.317 7.456 112.075 7.456C113.799 7.456 115.343 7.84267 116.711 8.616C118.079 9.38933 119.159 10.5173 119.951 12C120.755 13.4827 121.159 15.2373 121.159 17.264V18.288H106.067V15.544H117.663C117.631 14.1613 117.301 13.0267 116.671 12.14C116.053 11.2533 115.183 10.6053 114.063 10.196C112.954 9.77733 111.671 9.568 110.215 9.568C108.519 9.568 107.115 9.94933 106.003 10.712C104.902 11.464 104.19 12.4613 103.879 13.704V19.792C104.118 21.0187 104.574 22.04 105.247 22.856C105.919 23.672 106.742 24.2827 107.711 24.68C108.686 25.0667 109.751 25.26 110.903 25.26C111.902 25.26 112.838 25.1173 113.711 24.832C114.582 24.536 115.327 24.0933 115.943 23.504C116.57 22.9147 117.011 22.1627 117.267 21.248L120.799 21.864C120.447 23.0853 119.831 24.136 118.951 25.016C118.07 25.896 116.981 26.5733 115.679 27.048C114.377 27.5333 113.918 27.776 112.447 27.224Z" fill="#BC2DF6"/>
  <path d="M125.711 7.72H129.143V27H125.711V7.72ZM127.447 4.312C126.801 4.312 126.255 4.11733 125.811 3.728C125.378 3.33866 125.162 2.832 125.162 2.208C125.162 1.584 125.378 1.08267 125.811 0.703999C126.255 0.325332 126.801 0.135999 127.447 0.135999C128.093 0.135999 128.633 0.336 129.067 0.735999C129.511 1.12533 129.733 1.616 129.733 2.208C129.733 2.864 129.511 3.38667 129.067 3.776C128.633 4.13333 128.093 4.312 127.447 4.312Z" fill="#CE20F6"/>
  <path d="M149.122 27L139.178 18.024V27H135.746V0.135999H139.178V16.744L148.898 7.72H153.586L142.246 17.824L153.93 27H149.122Z" fill="#E014F6"/>
  <path d="M166.769 27.224C164.897 27.224 163.217 26.8347 161.729 26.056C160.241 25.272 159.065 24.1227 158.201 22.608C157.347 21.0933 156.921 19.3387 156.921 17.344C156.921 15.3707 157.347 13.6267 158.201 12.112C159.056 10.5973 160.197 9.44267 161.621 8.648C163.047 7.85333 164.639 7.456 166.397 7.456C168.121 7.456 169.665 7.84267 171.033 8.616C172.401 9.38933 173.481 10.5173 174.273 12C175.077 13.4827 175.481 15.2373 175.481 17.264V18.288H160.389V15.544H171.985C171.953 14.1613 171.623 13.0267 170.993 12.14C170.375 11.2533 169.505 10.6053 168.385 10.196C167.276 9.77733 165.993 9.568 164.537 9.568C162.841 9.568 161.437 9.94933 160.325 10.712C159.224 11.464 158.513 12.4613 158.201 13.704V19.792C158.441 21.0187 158.897 22.04 159.569 22.856C160.241 23.672 161.064 24.2827 162.033 24.68C163.008 25.0667 164.073 25.26 165.225 25.26C166.225 25.26 167.161 25.1173 168.033 24.832C168.905 24.536 169.649 24.0933 170.265 23.504C170.893 22.9147 171.333 22.1627 171.589 21.248L175.121 21.864C174.769 23.0853 174.153 24.136 173.273 25.016C172.393 25.896 171.303 26.5733 170.001 27.048C168.7 27.5333 168.24 27.776 166.769 27.224Z" fill="#F207F6"/>
</svg>
