<?xml version="1.0" encoding="UTF-8"?>
<svg width="116px" height="176px" viewBox="0 0 116 176" xmlns="http://www.w3.org/2000/svg">
  <rect width="116" height="176" fill="#2a2d34"/>
  <g fill="#444" transform="translate(33, 58)">
    <path d="M25,0 C38.8071187,0 50,11.1928813 50,25 C50,38.8071187 38.8071187,50 25,50 C11.1928813,50 0,38.8071187 0,25 C0,11.1928813 11.1928813,0 25,0 Z M25,5 C13.954305,5 5,13.954305 5,25 C5,36.045695 13.954305,45 25,45 C36.045695,45 45,36.045695 45,25 C45,13.954305 36.045695,5 25,5 Z M20,15 C21.6568542,15 23,16.3431458 23,18 L23,32 C23,33.6568542 21.6568542,35 20,35 C18.3431458,35 17,33.6568542 17,32 L17,18 C17,16.3431458 18.3431458,15 20,15 Z M30,15 C31.6568542,15 33,16.3431458 33,18 L33,32 C33,33.6568542 31.6568542,35 30,35 C28.3431458,35 27,33.6568542 27,32 L27,18 C27,16.3431458 28.3431458,15 30,15 Z"/>
  </g>
</svg>
